<svg width="1325" height="1697" viewBox="0 0 1325 1697" fill="none" xmlns="http://www.w3.org/2000/svg">
<path d="M1324.04 1226.71V0.379997C1324.04 0.279215 1324 0.182561 1323.93 0.111298C1323.86 0.0400338 1323.77 0 1323.67 0H0.709997C0.557889 2.33567e-05 0.411869 0.0608235 0.303381 0.169312C0.194893 0.2778 0.132634 0.425286 0.130011 0.579994C0.0566774 12.2067 0.016667 24.33 0.0100003 36.95C-0.00999968 98.3433 -9.05246e-07 158.76 0.0399991 218.2C0.0799991 276.767 0.110011 341.767 0.130011 413.2C0.190011 591.33 0.370006 770.01 0.110006 948.7C0.0233398 1006.99 0.0766768 1068.78 0.27001 1134.09C0.36001 1164.11 -0.0100021 1197.71 0.569998 1230.56C0.573852 1230.64 0.60153 1230.71 0.649084 1230.77C0.696638 1230.83 0.761642 1230.87 0.834814 1230.89C0.907986 1230.91 0.985589 1230.91 1.05655 1230.88C1.12752 1230.85 1.18823 1230.8 1.23 1230.74C3.75667 1226.7 6.26334 1223 8.75001 1219.64C14.36 1212.05 17.02 1207.59 22.83 1199.25C24.67 1196.61 26.7567 1193.45 29.09 1189.77C34.0967 1181.87 39.72 1173.48 45.96 1164.6C51.2133 1157.13 56.8433 1148.74 62.85 1139.44C71.4367 1126.15 81.3967 1111.4 92.73 1095.19C96.28 1090.12 99.67 1084.05 103.37 1079.19C108.93 1071.89 113.96 1062.72 119.69 1054.98C122.89 1050.65 125.22 1046.35 128.49 1041.79C130.703 1038.7 132.943 1035.43 135.21 1032C145.023 1017.16 152.577 1005.87 157.87 998.13C165.81 986.51 172.07 977.187 176.65 970.16C180.677 963.973 184.247 958.697 187.36 954.33C192.96 946.46 198.36 937.69 204.4 929C207.147 925.053 209.31 921.92 210.89 919.6C220.217 905.86 229.377 892.103 238.37 878.33C240.01 875.81 241.72 873.223 243.5 870.57C243.667 870.317 249.87 861.03 262.11 842.71C267.7 834.35 273.51 826.44 278.7 817.98C280.313 815.353 281.86 813.047 283.34 811.06C287.52 805.45 291.24 799.18 294.98 793.84C297.773 789.847 303.777 781.03 312.99 767.39C315.697 763.39 317.247 761.05 317.64 760.37C321.3 754.11 325.61 748.71 329.35 742.88C333.723 736.047 338.253 729.223 342.94 722.41C344.61 719.98 346.38 716.52 347.8 714.58C355.007 704.7 362.15 694.34 369.23 683.5C382.803 662.72 395.657 643.543 407.79 625.97C420.26 607.9 429.33 592.98 441.63 574.93C451.67 560.21 457.477 551.7 459.05 549.4C466.92 537.88 477.86 520.38 484.88 510.15C499.947 488.183 508.07 476.227 509.25 474.28C512.15 469.493 514.513 465.883 516.34 463.45C517.833 461.45 518.963 459.863 519.73 458.69C525.72 449.49 532.26 440.13 538.61 430.18C539.73 428.427 541.937 425.127 545.23 420.28C553.57 408.04 558.777 400.337 560.85 397.17C573.18 378.31 583.77 363.41 596.04 344.56C596.687 343.567 598.457 340.863 601.35 336.45C611.703 320.677 622.127 305.14 632.62 289.84C638.787 280.847 644.7 271.857 650.36 262.87C656.347 253.363 662.957 243.393 670.19 232.96C670.41 232.64 670.773 231.807 671.28 230.46C671.305 230.394 671.347 230.337 671.403 230.293C671.458 230.25 671.524 230.222 671.593 230.212C671.663 230.203 671.734 230.213 671.798 230.241C671.863 230.268 671.919 230.313 671.96 230.37C678.733 239.777 684.663 249.03 689.75 258.13C691.337 260.977 696.33 268.61 704.73 281.03C709.99 288.803 714.95 296.423 719.61 303.89C730.583 321.49 741.497 338.127 752.35 353.8C755.47 358.32 758.52 364.07 762.15 369.03C766.91 375.56 771.76 384.7 776.41 391.41C785.35 404.337 795.51 419.857 806.89 437.97C810.877 444.317 814.637 449.973 818.17 454.94C821.61 459.787 824.2 463.67 825.94 466.59C828.533 470.937 831.01 474.89 833.37 478.45C848.65 501.483 860.947 520.143 870.26 534.43C875.247 542.07 879.953 549.497 884.38 556.71C889.847 565.623 894.663 572.957 898.83 578.71C903.403 585.023 908.72 593.033 914.78 602.74C917.393 606.913 922.69 615.103 930.67 627.31C932.417 629.99 933.89 632.417 935.09 634.59C937.98 639.83 941.96 644.82 944.97 649.33C952.57 660.77 957.1 667.05 962.79 676.5C972.07 691.91 984.75 709.46 994.72 725.49C998.9 732.21 1003.76 739.687 1009.29 747.92C1016.84 759.16 1024.82 772.17 1032.8 783.91C1038.64 792.497 1044.51 801.507 1050.4 810.94C1060.04 826.38 1071.04 842.26 1082.74 860.28C1093.47 876.807 1099.77 886.453 1101.65 889.22C1109.56 900.873 1116.58 911.543 1122.71 921.23C1130.11 932.917 1137.1 943.607 1143.67 953.3C1154.87 969.82 1166.28 988.16 1177.35 1005.04C1189.63 1023.76 1198.04 1037.11 1211.01 1056.42C1218.77 1067.97 1225.87 1078.92 1232.3 1089.25C1240.56 1102.51 1251.21 1118.29 1259.07 1129.53C1260.97 1132.24 1266.92 1141.64 1276.92 1157.75C1281.6 1165.29 1287.52 1172.94 1291.91 1179.99C1296.27 1187 1300.09 1192.29 1303.81 1198.47C1309.32 1207.62 1315.83 1217.12 1323.33 1226.95C1323.38 1227.01 1323.45 1227.06 1323.53 1227.08C1323.61 1227.1 1323.69 1227.1 1323.77 1227.08C1323.85 1227.05 1323.91 1227 1323.96 1226.94C1324.01 1226.87 1324.04 1226.79 1324.04 1226.71ZM495.01 981.36C495.757 981.353 496.627 981.197 497.62 980.89C503.853 978.977 511.617 976.89 520.91 974.63C534.71 971.27 553.72 964.15 566.88 960.81C575.39 958.64 588.6 955.46 599.36 952.23C616.56 947.07 634.63 942.83 651.11 937.12C654.45 935.967 661.853 933.983 673.32 931.17C681.893 929.063 689.457 926.88 696.01 924.62C702.477 922.393 708.853 920.5 715.14 918.94C725.34 916.42 737.843 912.827 752.65 908.16C753.957 907.753 755.35 907.203 756.83 906.51C756.912 906.474 757.002 906.462 757.09 906.474C757.179 906.487 757.262 906.524 757.33 906.581C757.399 906.638 757.45 906.713 757.478 906.798C757.506 906.882 757.51 906.973 757.49 907.06C757.463 907.14 757.403 907.233 757.31 907.34C746.823 918.867 738.76 927.907 733.12 934.46C728.493 939.84 724.517 944.167 721.19 947.44C710.87 957.59 701.69 969.17 692.85 978.75C680.623 991.997 667.333 1006.6 652.98 1022.57C643.61 1032.99 637.55 1040.88 629.64 1048.98C624.087 1054.67 618.107 1061.14 611.7 1068.39C599.4 1082.3 588.39 1094.51 578.67 1105.01C562.81 1122.14 551.87 1134.82 537.44 1150.46C520.46 1168.88 486.1 1208.33 461.2 1235.48C460.007 1236.79 458.733 1238.18 457.38 1239.66C438.34 1260.45 420.593 1279.96 404.14 1298.18C378.2 1326.9 364.523 1342.05 363.11 1343.64C359.03 1348.22 340.343 1368.85 307.05 1405.54C300.323 1412.95 294.743 1419.23 290.31 1424.36C276.16 1440.77 263.72 1453.6 248.21 1471.15C236.16 1484.78 218.4 1503.92 203.8 1520.66C190.2 1536.25 177.97 1549.14 165.75 1562.72C157.25 1572.16 152.493 1577.44 151.48 1578.55C143.927 1586.8 139.187 1592.1 137.26 1594.44C130.6 1602.53 121.96 1611.05 115.3 1618.93C110.287 1624.86 104.79 1630.98 98.81 1637.27C90.2 1646.34 82.03 1656.26 73.77 1665.01C72.9233 1665.91 68.2967 1671.03 59.89 1680.36C57.3233 1683.21 55.0233 1685.93 52.99 1688.52C50.1367 1692.16 47.7533 1694.8 45.84 1696.45C45.7943 1696.49 45.7641 1696.54 45.755 1696.6C45.746 1696.66 45.7588 1696.72 45.791 1696.77C45.8232 1696.82 45.8725 1696.85 45.9295 1696.87C45.9865 1696.88 46.0472 1696.88 46.1 1696.85C49.34 1695.18 52.77 1691.83 55.91 1689.41C69.8767 1678.62 85.89 1666.15 103.95 1651.98C105.423 1650.83 110.217 1647.32 118.33 1641.46C122.29 1638.6 125.84 1634.91 129.21 1632.91C134.75 1629.61 140.1 1624.62 145.78 1620.31C181.093 1593.44 199.813 1579.21 201.94 1577.62C205.43 1575 209.16 1571.66 212.31 1569.35C219.95 1563.73 231.527 1554.97 247.04 1543.06C258.453 1534.29 269.973 1525.42 281.6 1516.45C288.93 1510.79 295.18 1506.58 302.36 1500.9C305.94 1498.07 322.623 1485.24 352.41 1462.43C362.297 1454.86 368.667 1449.9 371.52 1447.56C377.16 1442.95 381.88 1440.01 387.42 1435.46C389.62 1433.66 393.587 1430.63 399.32 1426.37C406.72 1420.88 414.833 1414.72 423.66 1407.91C429.607 1403.32 432.843 1400.83 433.37 1400.45C438.263 1396.87 441.5 1394.38 443.08 1392.99C447.02 1389.52 451.89 1386.44 457.03 1382.42C467.57 1374.19 482.63 1362.44 496.31 1352.28C506.623 1344.61 516.28 1337.26 525.28 1330.22C527.19 1328.72 529.91 1326.63 531.92 1326.63C871.753 1326.58 1041.92 1326.57 1042.42 1326.6C1044.78 1326.76 1050.91 1326.63 1060.8 1326.21C1060.86 1326.21 1060.93 1326.19 1060.98 1326.16C1061.04 1326.12 1061.08 1326.08 1061.12 1326.03C1061.15 1325.97 1061.17 1325.91 1061.17 1325.85C1061.18 1325.78 1061.17 1325.72 1061.14 1325.66C1056.47 1315.64 1048.58 1303.61 1042.69 1292.27C1038.23 1283.69 1031.48 1272.99 1026.75 1264.23C1022.57 1256.47 1014.92 1242.92 1003.81 1223.58C996.85 1211.46 990.02 1198.38 983.75 1187.71C978.23 1178.33 973.177 1169.37 968.59 1160.84C958.28 1141.68 943.76 1117.15 932.72 1096.76C929.04 1089.97 923.15 1079.41 915.05 1065.06C910.5 1057.01 905.98 1050.01 901.93 1042.27C900.197 1038.96 897.737 1034.59 894.55 1029.14C887.14 1016.47 880.71 1004.35 873.38 991.8C870.107 986.193 865.533 978.097 859.66 967.51C828.7 911.703 797.853 856.693 767.12 802.48C759 788.16 752.56 775.88 745.04 763.61C742.88 760.09 740.69 755.46 738.63 751.99C729.423 736.45 722.033 723.43 716.46 712.93C712.987 706.383 707.787 697.133 700.86 685.18C694.767 674.667 689.677 665.303 685.59 657.09C683.99 653.877 682.297 650.837 680.51 647.97C677.05 642.44 674.86 639.34 673.6 635.82C673.55 635.685 673.462 635.568 673.347 635.482C673.232 635.396 673.095 635.344 672.952 635.334C672.809 635.323 672.666 635.354 672.539 635.422C672.413 635.491 672.309 635.594 672.24 635.72C667.29 644.75 663.94 649.97 660.33 657.42C657.55 663.173 653.65 670.703 648.63 680.01C645.57 685.69 643.09 691.32 640.68 695.55C634.95 705.63 629.18 718.46 624.57 726.86C624.523 726.94 621.347 733.2 615.04 745.64C608.207 759.12 597.86 779.03 584 805.37C583.333 806.637 581.107 811.173 577.32 818.98C570.84 832.32 564.62 843.45 557.21 858.5C550.33 872.5 541.5 888.42 534.02 903.23C524.207 922.657 518.167 934.487 515.9 938.72C508.41 952.71 503.87 962.49 494.75 980.95C494.729 980.995 494.72 981.044 494.723 981.094C494.727 981.143 494.742 981.191 494.768 981.232C494.794 981.273 494.83 981.306 494.872 981.329C494.915 981.351 494.962 981.362 495.01 981.36ZM25.39 1325.69L26.87 1326.31C27.0282 1326.38 27.1988 1326.41 27.37 1326.4C34.31 1326.23 43.8267 1326.31 55.92 1326.66C58.16 1326.73 70.4933 1326.64 92.92 1326.41C103.267 1326.3 116.683 1326.42 133.17 1326.75C140.97 1326.91 156.637 1326.8 180.17 1326.43C190.957 1326.26 206.707 1326.44 227.42 1326.99C230.327 1327.06 233.073 1326.95 235.66 1326.66C237.007 1326.51 237.967 1325.89 238.54 1324.81C243.45 1315.54 247.37 1306.58 252.42 1297C261.31 1280.14 263.46 1275.51 271.67 1260.26C274.523 1254.97 277.587 1248.71 280.86 1241.46C280.901 1241.37 280.915 1241.26 280.9 1241.16C280.885 1241.06 280.843 1240.97 280.777 1240.89C280.711 1240.82 280.625 1240.76 280.528 1240.73C280.432 1240.7 280.328 1240.69 280.23 1240.72C266.19 1244.53 254.9 1248.34 235.24 1255.14C216.07 1261.76 207.1 1264.52 190.09 1269.92C172.11 1275.62 154.23 1282.58 136.62 1287.96C115.92 1294.28 93.58 1302.45 76.33 1308.33C69.17 1310.78 61.44 1312.81 53.77 1315.57C42.37 1319.67 32.9167 1322.89 25.41 1325.23C25.3621 1325.24 25.3199 1325.27 25.2893 1325.31C25.2587 1325.35 25.2411 1325.4 25.2389 1325.45C25.2367 1325.5 25.25 1325.55 25.2771 1325.59C25.3041 1325.63 25.3435 1325.67 25.39 1325.69Z" fill="#2DB3BF"/>
<path d="M1324.04 1226.71C1324.04 1226.79 1324.01 1226.87 1323.96 1226.94C1323.91 1227 1323.85 1227.05 1323.77 1227.08C1323.69 1227.1 1323.61 1227.1 1323.53 1227.08C1323.45 1227.06 1323.38 1227.01 1323.33 1226.95C1315.83 1217.12 1309.32 1207.62 1303.81 1198.47C1300.09 1192.29 1296.27 1187 1291.91 1179.99C1287.52 1172.94 1281.6 1165.29 1276.92 1157.75C1266.92 1141.64 1260.97 1132.24 1259.07 1129.53C1251.21 1118.29 1240.56 1102.51 1232.3 1089.25C1225.87 1078.92 1218.77 1067.97 1211.01 1056.42C1198.04 1037.11 1189.63 1023.76 1177.35 1005.04C1166.28 988.16 1154.87 969.82 1143.67 953.3C1137.1 943.607 1130.11 932.917 1122.71 921.23C1116.58 911.543 1109.56 900.873 1101.65 889.22C1099.77 886.453 1093.47 876.807 1082.74 860.28C1071.04 842.26 1060.04 826.38 1050.4 810.94C1044.51 801.507 1038.64 792.497 1032.8 783.91C1024.82 772.17 1016.84 759.16 1009.29 747.92C1003.76 739.687 998.9 732.21 994.72 725.49C984.75 709.46 972.07 691.91 962.79 676.5C957.1 667.05 952.57 660.77 944.97 649.33C941.96 644.82 937.98 639.83 935.09 634.59C933.89 632.417 932.417 629.99 930.67 627.31C922.69 615.103 917.393 606.913 914.78 602.74C908.72 593.033 903.403 585.023 898.83 578.71C894.663 572.957 889.847 565.623 884.38 556.71C879.953 549.497 875.247 542.07 870.26 534.43C860.947 520.143 848.65 501.483 833.37 478.45C831.01 474.89 828.533 470.937 825.94 466.59C824.2 463.67 821.61 459.787 818.17 454.94C814.637 449.973 810.877 444.317 806.89 437.97C795.51 419.857 785.35 404.337 776.41 391.41C771.76 384.7 766.91 375.56 762.15 369.03C758.52 364.07 755.47 358.32 752.35 353.8C741.497 338.127 730.583 321.49 719.61 303.89C714.95 296.423 709.99 288.803 704.73 281.03C696.33 268.61 691.337 260.977 689.75 258.13C684.663 249.03 678.733 239.777 671.96 230.37C671.919 230.313 671.863 230.268 671.798 230.241C671.734 230.213 671.663 230.203 671.593 230.212C671.524 230.222 671.458 230.25 671.403 230.293C671.347 230.337 671.305 230.394 671.28 230.46C670.773 231.807 670.41 232.64 670.19 232.96C662.957 243.393 656.347 253.363 650.36 262.87C644.7 271.857 638.787 280.847 632.62 289.84C622.127 305.14 611.703 320.677 601.35 336.45C598.457 340.863 596.687 343.567 596.04 344.56C583.77 363.41 573.18 378.31 560.85 397.17C558.777 400.337 553.57 408.04 545.23 420.28C541.937 425.127 539.73 428.427 538.61 430.18C532.26 440.13 525.72 449.49 519.73 458.69C518.963 459.863 517.833 461.45 516.34 463.45C514.513 465.883 512.15 469.493 509.25 474.28C508.07 476.227 499.947 488.183 484.88 510.15C477.86 520.38 466.92 537.88 459.05 549.4C457.477 551.7 451.67 560.21 441.63 574.93C429.33 592.98 420.26 607.9 407.79 625.97C395.657 643.543 382.803 662.72 369.23 683.5C362.15 694.34 355.007 704.7 347.8 714.58C346.38 716.52 344.61 719.98 342.94 722.41C338.253 729.223 333.723 736.047 329.35 742.88C325.61 748.71 321.3 754.11 317.64 760.37C317.247 761.05 315.697 763.39 312.99 767.39C303.777 781.03 297.773 789.847 294.98 793.84C291.24 799.18 287.52 805.45 283.34 811.06C281.86 813.047 280.313 815.353 278.7 817.98C273.51 826.44 267.7 834.35 262.11 842.71C249.87 861.03 243.667 870.317 243.5 870.57C241.72 873.223 240.01 875.81 238.37 878.33C229.377 892.103 220.217 905.86 210.89 919.6C209.31 921.92 207.147 925.053 204.4 929C198.36 937.69 192.96 946.46 187.36 954.33C184.247 958.697 180.677 963.973 176.65 970.16C172.07 977.187 165.81 986.51 157.87 998.13C152.577 1005.87 145.023 1017.16 135.21 1032C132.943 1035.43 130.703 1038.7 128.49 1041.79C125.22 1046.35 122.89 1050.65 119.69 1054.98C113.96 1062.72 108.93 1071.89 103.37 1079.19C99.67 1084.05 96.28 1090.12 92.73 1095.19C81.3967 1111.4 71.4367 1126.15 62.85 1139.44C56.8433 1148.74 51.2133 1157.13 45.96 1164.6C39.72 1173.48 34.0967 1181.87 29.09 1189.77C26.7567 1193.45 24.67 1196.61 22.83 1199.25C17.02 1207.59 14.36 1212.05 8.75001 1219.64C6.26334 1223 3.75667 1226.7 1.23 1230.74C1.18823 1230.8 1.12752 1230.85 1.05655 1230.88C0.985589 1230.91 0.907986 1230.91 0.834814 1230.89C0.761642 1230.87 0.696638 1230.83 0.649084 1230.77C0.60153 1230.71 0.573852 1230.64 0.569998 1230.56C-0.0100021 1197.71 0.36001 1164.11 0.27001 1134.09C0.0766768 1068.78 0.0233398 1006.99 0.110006 948.7C0.370006 770.01 0.190011 591.33 0.130011 413.2C0.110011 341.767 0.0799991 276.767 0.0399991 218.2C-9.05246e-07 158.76 -0.00999968 98.3433 0.0100003 36.95C0.016667 24.33 0.0566774 12.2067 0.130011 0.579994C0.132634 0.425286 0.194893 0.2778 0.303381 0.169312C0.411869 0.0608235 0.557889 2.33567e-05 0.709997 0H1323.67C1323.77 0 1323.86 0.0400338 1323.93 0.111298C1324 0.182561 1324.04 0.279215 1324.04 0.379997V1226.71Z" fill="#2DB3BF"/>
<path d="M495.01 981.36C494.962 981.362 494.914 981.352 494.872 981.329C494.83 981.307 494.794 981.273 494.768 981.232C494.742 981.191 494.726 981.144 494.723 981.094C494.72 981.045 494.729 980.995 494.75 980.95C503.87 962.49 508.41 952.71 515.9 938.72C518.166 934.487 524.206 922.657 534.02 903.23C541.5 888.42 550.33 872.5 557.21 858.5C564.62 843.45 570.84 832.32 577.32 818.98C581.106 811.174 583.333 806.637 584 805.37C597.86 779.03 608.206 759.12 615.04 745.64C621.346 733.2 624.523 726.94 624.57 726.86C629.18 718.46 634.95 705.63 640.68 695.55C643.09 691.32 645.57 685.69 648.63 680.01C653.65 670.704 657.55 663.174 660.33 657.42C663.94 649.97 667.29 644.75 672.24 635.72C672.309 635.595 672.413 635.491 672.539 635.423C672.665 635.354 672.809 635.324 672.952 635.334C673.095 635.345 673.232 635.396 673.347 635.482C673.462 635.568 673.55 635.686 673.6 635.82C674.86 639.34 677.05 642.44 680.51 647.97C682.296 650.837 683.99 653.877 685.59 657.09C689.676 665.304 694.766 674.667 700.86 685.18C707.786 697.134 712.986 706.384 716.46 712.93C722.033 723.43 729.423 736.45 738.63 751.99C740.69 755.46 742.88 760.09 745.04 763.61C752.56 775.88 759 788.16 767.12 802.48C797.853 856.694 828.7 911.704 859.66 967.51C865.533 978.097 870.106 986.194 873.38 991.8C880.71 1004.35 887.14 1016.47 894.55 1029.14C897.736 1034.59 900.196 1038.96 901.93 1042.27C905.98 1050.01 910.5 1057.01 915.05 1065.06C923.15 1079.41 929.04 1089.97 932.72 1096.76C943.76 1117.15 958.28 1141.68 968.59 1160.84C973.176 1169.37 978.23 1178.33 983.75 1187.71C990.02 1198.38 996.85 1211.46 1003.81 1223.58C1014.92 1242.92 1022.57 1256.47 1026.75 1264.23C1031.48 1272.99 1038.23 1283.69 1042.69 1292.27C1048.58 1303.61 1056.47 1315.64 1061.14 1325.66C1061.17 1325.72 1061.18 1325.78 1061.17 1325.85C1061.17 1325.91 1061.15 1325.97 1061.12 1326.03C1061.08 1326.08 1061.04 1326.13 1060.98 1326.16C1060.93 1326.19 1060.86 1326.21 1060.8 1326.21C1050.91 1326.63 1044.78 1326.76 1042.42 1326.6C1041.92 1326.57 871.753 1326.58 531.92 1326.63C529.91 1326.63 527.19 1328.72 525.28 1330.22C516.28 1337.26 506.623 1344.61 496.31 1352.28C482.63 1362.44 467.57 1374.19 457.03 1382.42C451.89 1386.44 447.02 1389.52 443.08 1392.99C441.5 1394.38 438.263 1396.87 433.37 1400.45C432.843 1400.83 429.606 1403.32 423.66 1407.91C414.833 1414.72 406.72 1420.88 399.32 1426.37C393.586 1430.63 389.62 1433.66 387.42 1435.46C381.88 1440.01 377.16 1442.95 371.52 1447.56C368.666 1449.9 362.296 1454.86 352.41 1462.43C322.623 1485.24 305.94 1498.07 302.36 1500.9C295.18 1506.58 288.93 1510.79 281.6 1516.45C269.973 1525.42 258.453 1534.29 247.04 1543.06C231.526 1554.97 219.95 1563.73 212.31 1569.35C209.16 1571.66 205.43 1575 201.94 1577.62C199.813 1579.21 181.093 1593.44 145.78 1620.31C140.1 1624.62 134.75 1629.61 129.21 1632.91C125.84 1634.91 122.29 1638.6 118.33 1641.46C110.216 1647.32 105.423 1650.83 103.95 1651.98C85.8898 1666.15 69.8764 1678.62 55.9098 1689.41C52.7698 1691.83 49.3398 1695.18 46.0998 1696.85C46.047 1696.88 45.9863 1696.88 45.9293 1696.87C45.8722 1696.85 45.8229 1696.82 45.7907 1696.77C45.7585 1696.72 45.7457 1696.66 45.7548 1696.6C45.7638 1696.54 45.7941 1696.49 45.8398 1696.45C47.7531 1694.8 50.1364 1692.16 52.9898 1688.52C55.0231 1685.93 57.3231 1683.21 59.8898 1680.36C68.2964 1671.03 72.9231 1665.91 73.7698 1665.01C82.0298 1656.26 90.1998 1646.34 98.8098 1637.27C104.79 1630.98 110.286 1624.86 115.3 1618.93C121.96 1611.05 130.6 1602.53 137.26 1594.44C139.186 1592.1 143.926 1586.8 151.48 1578.55C152.493 1577.44 157.25 1572.16 165.75 1562.72C177.97 1549.14 190.2 1536.25 203.8 1520.66C218.4 1503.92 236.16 1484.78 248.21 1471.15C263.72 1453.6 276.16 1440.77 290.31 1424.36C294.743 1419.23 300.323 1412.95 307.05 1405.54C340.343 1368.85 359.03 1348.22 363.11 1343.64C364.523 1342.05 378.2 1326.9 404.14 1298.18C420.593 1279.96 438.34 1260.45 457.38 1239.66C458.733 1238.18 460.006 1236.79 461.2 1235.48C486.1 1208.33 520.46 1168.88 537.44 1150.46C551.87 1134.82 562.81 1122.14 578.67 1105.01C588.39 1094.51 599.4 1082.3 611.7 1068.39C618.106 1061.14 624.086 1054.67 629.64 1048.98C637.55 1040.88 643.61 1032.99 652.98 1022.57C667.333 1006.6 680.623 991.997 692.85 978.75C701.69 969.171 710.87 957.59 721.19 947.44C724.516 944.167 728.493 939.84 733.12 934.46C738.76 927.907 746.823 918.867 757.31 907.34C757.403 907.234 757.463 907.14 757.49 907.06C757.51 906.974 757.506 906.883 757.478 906.798C757.45 906.713 757.398 906.638 757.33 906.581C757.261 906.524 757.178 906.487 757.09 906.475C757.002 906.462 756.911 906.475 756.83 906.51C755.35 907.204 753.956 907.754 752.65 908.16C737.843 912.827 725.34 916.42 715.14 918.94C708.853 920.5 702.476 922.394 696.01 924.62C689.456 926.88 681.893 929.064 673.32 931.17C661.853 933.984 654.45 935.967 651.11 937.12C634.63 942.83 616.56 947.07 599.36 952.23C588.6 955.46 575.39 958.64 566.88 960.81C553.72 964.15 534.71 971.271 520.91 974.63C511.616 976.891 503.853 978.977 497.62 980.89C496.626 981.197 495.756 981.354 495.01 981.36Z" fill="#2DB3BF"/>
<path d="M25.3896 1325.69C25.3432 1325.67 25.3037 1325.63 25.2767 1325.59C25.2497 1325.55 25.2363 1325.5 25.2385 1325.45C25.2407 1325.4 25.2583 1325.35 25.2889 1325.31C25.3195 1325.27 25.3617 1325.24 25.4096 1325.23C32.9163 1322.89 42.3696 1319.67 53.7696 1315.57C61.4396 1312.81 69.1696 1310.78 76.3296 1308.33C93.5796 1302.45 115.92 1294.28 136.62 1287.96C154.23 1282.58 172.11 1275.62 190.09 1269.92C207.1 1264.52 216.07 1261.76 235.24 1255.14C254.9 1248.34 266.19 1244.53 280.23 1240.72C280.328 1240.69 280.431 1240.7 280.528 1240.73C280.625 1240.76 280.711 1240.82 280.776 1240.89C280.842 1240.97 280.885 1241.06 280.9 1241.16C280.914 1241.27 280.9 1241.37 280.86 1241.46C277.586 1248.71 274.523 1254.97 271.67 1260.26C263.46 1275.51 261.31 1280.14 252.42 1297C247.37 1306.58 243.45 1315.54 238.54 1324.81C237.966 1325.89 237.006 1326.51 235.66 1326.66C233.073 1326.95 230.326 1327.06 227.42 1326.99C206.706 1326.44 190.956 1326.26 180.17 1326.43C156.636 1326.8 140.97 1326.91 133.17 1326.75C116.683 1326.42 103.266 1326.3 92.9196 1326.41C70.493 1326.64 58.1596 1326.73 55.9196 1326.66C43.8263 1326.31 34.3096 1326.23 27.3696 1326.4C27.1984 1326.41 27.0278 1326.38 26.8696 1326.31L25.3896 1325.69Z" fill="#2DB3BF"/>
</svg>
